<svg xmlns="http://www.w3.org/2000/svg" width="1200" height="700" viewBox="0 0 1200 700"><defs><linearGradient id="bg3" x1="0" y1="0" x2="1" y2="1"><stop stop-color="#F4FBF7"/><stop offset="1" stop-color="#E8F5EC"/></linearGradient><filter id="s3" x="-20%" y="-20%" width="140%" height="140%"><feDropShadow dx="0" dy="10" stdDeviation="16" flood-color="#0B2F21" flood-opacity=".12"/></filter></defs><rect width="1200" height="700" rx="36" fill="url(#bg3)"/><g filter="url(#s3)"><rect x="90" y="85" width="1020" height="530" rx="34" fill="#fff" stroke="#D7EBDD" stroke-width="2"/></g>
<!-- bank --> <g transform="translate(145 215)" fill="#0B2F21"><path d="M0 95 L110 20 L220 95 Z"/><rect x="20" y="105" width="180" height="22" rx="8"/><rect x="35" y="135" width="28" height="125" rx="8"/><rect x="96" y="135" width="28" height="125" rx="8"/><rect x="157" y="135" width="28" height="125" rx="8"/><rect x="15" y="268" width="190" height="24" rx="10"/></g>
<!-- tranche coins --> <g fill="#E4B84F" stroke="#C99B32" stroke-width="4"><ellipse cx="420" cy="500" rx="55" ry="18"/><rect x="365" y="440" width="110" height="60"/><ellipse cx="420" cy="440" rx="55" ry="18"/><ellipse cx="550" cy="500" rx="55" ry="18"/><rect x="495" y="410" width="110" height="90"/><ellipse cx="550" cy="410" rx="55" ry="18"/><ellipse cx="680" cy="500" rx="55" ry="18"/><rect x="625" y="375" width="110" height="125"/><ellipse cx="680" cy="375" rx="55" ry="18"/></g>
<!-- verification gate --> <g transform="translate(480 180)"><rect x="0" y="0" width="210" height="145" rx="24" fill="#DDF1E3" stroke="#2F7D4A" stroke-width="5"/><path d="M55 75 l30 30 70-80" fill="none" stroke="#2F7D4A" stroke-width="14" stroke-linecap="round" stroke-linejoin="round"/><circle cx="185" cy="25" r="18" fill="#E4B84F"/></g>
<!-- satellite evidence --> <g transform="translate(710 135)"><rect x="38" y="18" width="74" height="42" rx="10" fill="#0B2F21"/><rect x="0" y="4" width="34" height="70" fill="#2F7D4A"/><rect x="116" y="4" width="34" height="70" fill="#2F7D4A"/></g><path d="M785 215 l-70 185 h140z" fill="#DDF1E3" opacity=".75"/>
<!-- farm --> <g transform="translate(820 355)"><path d="M0 125 q90-90 210 0v95H0z" fill="#DDF1E3"/><rect x="115" y="80" width="95" height="70" rx="10" fill="#2F7D4A"/><path d="M105 85 l58-45 58 45z" fill="#0B2F21"/><g fill="#7DB88D"><path d="M20 160 q-8-55 28-70 q8 38-28 70"/><path d="M60 165 q-2-60 42-76 q4 45-42 76"/><path d="M100 165 q-2-50 32-70 q8 40-32 70"/></g></g>
<!-- flow arrows --> <g fill="none" stroke="#2F7D4A" stroke-width="12" stroke-linecap="round" stroke-linejoin="round"><path d="M365 360 H470"/><path d="M690 360 H805"/></g><path d="M470 360 l-28-20 v40z" fill="#2F7D4A"/><path d="M805 360 l-28-20 v40z" fill="#2F7D4A"/><g stroke="#7DB88D" stroke-width="4" stroke-dasharray="8 10"><path d="M785 310 C720 310 710 280 690 260" fill="none"/></g></svg>
